PathFileType	4	(X/Y/Z)	C:/Users/opensim2020/Desktop/walking_exp_matlab/subject02_walking11_straight_02.trc																																																																																																																												
DataRate	CameraRate	NumFrames	NumMarkers	Units	OrigDataRate	OrigDataStartFrame	OrigNumFrames																																																																																																																								
100	100	6	42	mm	100	1777	230																																																																																																																								
Frame#	Time	LFHD			RFHD			LBHD			RBHD			C7			T10			CLAV			STRN			RBAK			LSHO			LUPA			LELB			LFRM			LWRA			LWRB			LFIN			RSHO			RUPA			RELB			RFRM			RWRA			RWRB			RFIN			LASI			RASI			LPSI			RPSI			LTHI			LKNE			LTIB			LANK			LHEE			LTOE			RTHI			RKNE			RTIB			RANK			RHEE			RTOE			*39			*40			*41		
		X1	Y1	Z1	X2	Y2	Z2	X3	Y3	Z3	X4	Y4	Z4	X5	Y5	Z5	X6	Y6	Z6	X7	Y7	Z7	X8	Y8	Z8	X9	Y9	Z9	X10	Y10	Z10	X11	Y11	Z11	X12	Y12	Z12	X13	Y13	Z13	X14	Y14	Z14	X15	Y15	Z15	X16	Y16	Z16	X17	Y17	Z17	X18	Y18	Z18	X19	Y19	Z19	X20	Y20	Z20	X21	Y21	Z21	X22	Y22	Z22	X23	Y23	Z23	X24	Y24	Z24	X25	Y25	Z25	X26	Y26	Z26	X27	Y27	Z27	X28	Y28	Z28	X29	Y29	Z29	X30	Y30	Z30	X31	Y31	Z31	X32	Y32	Z32	X33	Y33	Z33	X34	Y34	Z34	X35	Y35	Z35	X36	Y36	Z36	X37	Y37	Z37	X38	Y38	Z38	X39	Y39	Z39	X40	Y40	Z40	X41	Y41	Z41	X42	Y42	Z42
																																																																																																																															
144	1.43	211.32729	1725.98425	943.60944	212.97737	1714.10828	1087.15942	74.06894	1664.65344	941.11786	62.98503	1652.02295	1084.74451	16.36348	1523.17017	1021.19696	-33.21907	1243.80225	1021.38721	155.43039	1453.96155	1006.59821	209.83765	1283.84888	1019.68365	-40.61102	1345.99146	1085.04407	79.12164	1493.39319	839.26215	59.36295	1292.96948	753.84448	54.80742	1152.8634	739.16315	67.65976	1022.37061	722.38318	126.37278	897.31543	747.54102	78.57551	899.98193	716.65961	99.52219	837.53479	708.94696	95.93272	1489.4989	1206.32715	78.44294	1292.73804	1285.43652	103.42272	1147.72156	1298.46643	144.605	1034.42004	1315.26184	207.51129	914.52307	1294.56665	161.58621	905.83722	1326.51782	204.99327	846.37537	1326.45947	218.52136	996.20007	887.07092	197.39838	963.89984	1142.14734	0.75517	1031.51782	951.67474	-13.16077	1022.44733	1065.50891	175.82948	685.83636	825.94757	155.48547	480.88589	855.46686	111.83652	289.34998	858.17413	126.54574	68.61551	901.38306	93.46056	41.22787	954.49005	283.04825	32.67663	886.2796	110.94345	663.81604	1220.28687	118.00677	466.13696	1220.85498	-28.46908	357.14865	1218.90784	-165.07593	223.28151	1182.23828	-211.84798	200.39328	1116.01465	-117.59637	73.59516	1223.875	119.18678	1805.60571	1032.06433	NaN	NaN	NaN	NaN	NaN	NaN
145	1.44	219.21487	1726.57825	942.30762	220.71204	1714.77783	1085.73926	82.02477	1664.9165	939.7868	70.83275	1652.75146	1083.12537	24.14638	1523.97119	1019.25061	-26.52506	1244.82605	1018.84399	162.99187	1454.50952	1005.27478	217.00064	1284.13855	1018.3269	-33.41207	1346.60583	1082.50378	87.80122	1494.26917	837.51642	70.64833	1293.52966	751.39001	68.59669	1153.49878	736.14502	83.47462	1023.1214	719.82867	145.20552	899.7262	746.04034	98.38956	901.25519	714.39563	121.69716	839.70062	706.82361	102.99674	1489.81104	1204.72009	84.44034	1293.12659	1283.64954	108.43187	1148.01904	1296.77466	148.08661	1034.44202	1314.31836	209.33394	913.72498	1294.10938	163.02464	905.5448	1325.66797	205.50247	845.64001	1325.98901	225.51408	995.44153	885.56525	203.46606	964.88495	1141.55933	7.41152	1032.32324	949.67401	-6.95206	1023.10974	1063.10815	180.82224	685.58026	825.16309	157.9068	480.74207	855.06024	112.85528	289.56879	858.1579	126.60544	68.66051	901.58496	93.61967	41.13078	954.64545	283.10721	32.63567	886.2088	123.25582	665.01703	1219.599	133.63962	467.80829	1219.50891	-12.2552	358.08044	1216.6344	-147.17368	222.32994	1179.9176	-192.98407	196.96542	1113.46753	-97.34389	75.20479	1226.06274	126.94794	1806.06494	1030.28687	-2846.03687	1034.18005	3356.9624	NaN	NaN	NaN
146	1.45	227.19293	1727.03943	941.03314	228.50133	1715.29443	1084.55579	90.01971	1665.65723	938.13989	78.5717	1653.40649	1081.73035	32.01146	1524.88757	1017.55634	-18.85357	1245.71191	1016.37219	170.64124	1454.99487	1003.91479	224.06709	1284.44409	1016.97595	-26.10411	1347.29675	1079.53918	96.50953	1495.22302	835.89447	82.25954	1294.51624	749.22046	82.48442	1154.45679	733.20148	100.48095	1024.3551	717.34314	164.39833	902.54486	744.75293	117.87418	902.77765	712.2207	142.94783	842.09924	704.77478	110.07333	1490.28601	1203.08203	90.565	1293.56152	1281.74048	113.13527	1148.4856	1295.58398	151.24805	1034.4054	1313.13855	211.24069	912.93878	1293.63489	164.70021	905.4516	1324.97363	206.45918	844.80292	1325.70605	232.02374	994.81299	884.14154	210.50487	966.36133	1140.75867	13.82558	1033.11414	948.02411	-0.63467	1023.82507	1061.2052	185.45934	685.28015	824.2644	160.37494	480.6456	854.74335	113.84129	289.76056	858.34595	126.66514	68.76016	901.77631	94.03161	41.06322	954.76587	283.18884	32.5907	886.15924	135.6243	666.27728	1219.0304	148.96283	469.46857	1218.12158	4.10278	358.32129	1214.5083	-128.60219	220.362	1177.85315	-173.73477	192.84294	1111.48901	-75.87508	75.93649	1227.67358	134.80006	1806.71741	1029.03809	-2845.81738	1034.1842	3356.88354	NaN	NaN	NaN
147	1.46	235.4859	1727.33093	940.43054	236.24785	1715.68689	1083.59973	97.88754	1666.49097	937.04333	86.25294	1653.92737	1080.46509	39.48878	1525.58765	1015.7514	-11.8164	1246.65698	1013.8736	177.85687	1455.26526	1002.64624	231.04219	1284.64783	1015.57208	-18.8331	1347.78821	1077.03906	105.09762	1496.21875	834.36163	93.47298	1295.61096	747.17072	96.43269	1155.51074	730.39807	118.45005	1025.97192	714.86334	183.65494	905.61652	743.63556	137.32117	904.68018	710.22028	164.85107	844.82593	703.06946	117.19396	1490.70911	1201.52979	96.58108	1294.22168	1280.61365	117.90651	1148.95996	1294.00464	154.86436	1034.66626	1312.06055	213.23065	912.33319	1293.19971	166.49959	905.54163	1324.44153	207.42378	844.50793	1325.44324	238.3591	994.46106	882.5871	216.59001	967.91101	1139.82178	20.13004	1033.63794	946.58606	5.87252	1024.39172	1059.66589	190.08633	684.84906	823.42365	162.91086	480.51855	854.56415	114.57002	289.99866	858.56622	126.73466	68.84571	901.96674	92.30955	41.7733	955.15448	283.26309	32.5475	886.06775	147.97426	667.52722	1218.51929	163.92577	471.08557	1216.84302	20.60766	357.96042	1212.48535	-109.51881	217.54802	1176.12207	-153.94882	187.73904	1109.75488	-53.22633	75.96968	1228.84326	142.73586	1807.1814	1027.9447	-2845.91333	1034.21265	3356.82373	NaN	NaN	NaN
148	1.47	243.39694	1727.87659	939.40057	244.01054	1715.89001	1082.75562	105.96317	1666.88977	935.88922	93.97459	1654.35559	1079.15466	47.07837	1526.26379	1014.0564	-4.94913	1247.55786	1011.54645	185.3156	1455.66882	1001.42883	237.96954	1284.81958	1014.22479	-11.98934	1348.71802	1075.16003	113.62998	1497.2345	832.97443	105.07877	1296.93689	745.08685	110.55408	1156.83142	727.6828	134.69249	1027.18457	712.7533	202.59189	908.84662	742.55188	157.29901	906.7489	708.39777	186.29236	847.74847	701.36719	124.40816	1490.99438	1200.11035	102.65783	1294.8302	1279.25867	122.63828	1149.47632	1292.47961	158.14111	1034.98108	1311.00146	215.29158	911.87329	1292.77148	168.43538	905.69598	1323.89307	208.68881	844.19885	1325.24377	244.52434	994.41699	880.99414	222.63924	969.55231	1138.56165	26.32395	1033.98242	945.53705	12.43173	1024.94666	1058.56238	194.17451	684.43665	822.75751	165.3894	480.39948	854.42328	115.67564	290.23441	858.78516	126.80621	68.94035	902.14783	92.85382	41.42488	955.53894	283.34357	32.48826	886.00513	160.21021	668.83325	1218.09656	178.73497	472.60059	1215.39392	37.3611	356.8486	1210.41382	-89.81398	213.84096	1174.79126	-133.74594	182.04468	1108.89063	-29.42384	75.27436	1229.65527	150.87009	1807.7948	1027.13904	-2845.98999	1034.146	3357.04102	NaN	NaN	NaN
149	1.48	251.88489	1728.2489	939.05811	251.79094	1715.93701	1082.19263	114.3185	1667.49634	935.05115	101.61497	1654.79932	1078.0946	54.84967	1526.91943	1012.60107	1.32748	1248.44202	1009.34552	193.00778	1456.10132	1000.19684	244.89835	1284.98401	1012.86328	-5.22148	1349.4646	1073.64172	122.12325	1498.20508	831.69562	116.34167	1298.15723	743.05756	124.35918	1158.13416	725.25439	151.95761	1029.32056	710.68134	221.67642	912.35974	741.59656	176.90146	909.06909	706.60535	207.53293	851.22607	699.78522	131.43599	1491.35571	1198.68115	108.69827	1295.38428	1277.62512	127.13097	1150.06995	1291.21069	161.62445	1035.2135	1310.30884	217.53195	911.55786	1292.49963	170.66606	905.79541	1323.26123	210.11353	844.03046	1325.12805	250.351	994.65826	879.63062	228.8902	971.19189	1137.04846	32.37492	1034.1073	944.73706	18.98368	1025.44202	1057.84192	197.94054	684.09039	822.29565	168.0128	480.21509	854.29413	117.05717	290.46341	858.92999	126.91422	69.01102	902.29266	92.50751	41.898	955.42078	283.41245	32.41396	885.93103	172.2249	670.117	1217.65295	193.37318	474.0275	1214.1167	54.10407	355.56595	1209.03723	-69.46232	209.34775	1173.63879	-112.74946	175.39273	1107.875	-4.6234	73.93962	1230.10095	158.88489	1808.1582	1026.34045	-2845.89502	1034.23401	3356.94238	NaN	NaN	NaN
